<?xml version="1.0" encoding="UTF-8"?>
<svg version="1.1" xmlns="http://www.w3.org/2000/svg" width="499" height="619">
<path d="M0 0 C1.01140045 -0.00570007 2.0228009 -0.01140015 3.06484985 -0.01727295 C5.20126311 -0.02668256 7.33769062 -0.03324078 9.47412109 -0.03710938 C12.68223736 -0.04674191 15.8896919 -0.0777743 19.09765625 -0.109375 C35.36572527 -0.19404299 50.52357449 1.48509445 66.2265625 5.890625 C67.59590942 6.27081787 67.59590942 6.27081787 68.99291992 6.65869141 C78.74334656 9.46182346 88.05890724 13.15657478 97.3515625 17.203125 C98.08181641 17.51475586 98.81207031 17.82638672 99.56445312 18.14746094 C115.43007889 24.96866947 129.6070065 34.31698597 143.5390625 44.453125 C144.30460449 45.00693848 145.07014648 45.56075195 145.85888672 46.13134766 C150.46846793 49.55233929 154.5589437 53.22979643 158.5390625 57.36694336 C160.33863712 59.19003074 162.21154917 60.85879461 164.1640625 62.515625 C173.57239562 70.67441388 181.40379337 79.50454799 188.92919922 89.37060547 C190.36342991 91.21841452 191.83487428 93.02842588 193.32421875 94.83203125 C206.61439943 110.94446767 216.38735515 128.31964031 225.72949219 146.97753906 C227.15549981 149.81324235 228.61111363 152.6307104 230.078125 155.4453125 C246.834419 188.24243387 255.999284 226.8027219 260.3515625 263.203125 C260.43629822 263.90705383 260.52103394 264.61098267 260.6083374 265.33624268 C262.36627166 280.37521553 262.75407856 295.32128569 262.7265625 310.453125 C262.72568634 311.63699799 262.72481018 312.82087097 262.72390747 314.0406189 C262.67682153 333.39978303 261.79949562 352.12097775 258.3515625 371.203125 C258.1698349 372.2116452 258.1698349 372.2116452 257.98443604 373.24053955 C248.25640007 426.73459262 228.77071666 477.25344694 196.3515625 521.203125 C195.93455078 521.78094727 195.51753906 522.35876953 195.08789062 522.95410156 C180.06805932 543.51778232 159.91439399 564.18173684 138.41113281 577.87451172 C136.23517854 579.27820341 134.11781341 580.74847337 132 582.23828125 C96.7880532 606.80727679 56.37535416 619.6803932 13.4765625 619.578125 C12.12511642 619.57681076 12.12511642 619.57681076 10.74636841 619.57546997 C-33.40463017 619.43427511 -75.84589203 605.16204718 -111.6484375 579.203125 C-112.19371094 578.80802734 -112.73898438 578.41292969 -113.30078125 578.00585938 C-131.91262792 564.37056163 -149.60844707 548.56121442 -163.6484375 530.203125 C-164.30610107 529.36007812 -164.30610107 529.36007812 -164.97705078 528.5 C-209.9844689 470.77208857 -236.57836458 397.34651599 -236.8515625 323.94140625 C-236.85726257 322.71189743 -236.86296265 321.48238861 -236.86883545 320.21562195 C-236.8782212 317.62479494 -236.88479361 315.03395634 -236.88867188 312.44311523 C-236.89830087 308.57057576 -236.92935617 304.69858563 -236.9609375 300.82617188 C-237.05410348 279.12637738 -235.18168568 257.92421195 -230.8984375 236.640625 C-230.64239746 235.34962891 -230.38635742 234.05863281 -230.12255859 232.72851562 C-227.62153188 220.36014362 -224.42169689 208.2411429 -220.6484375 196.203125 C-220.34711914 195.24003418 -220.04580078 194.27694336 -219.73535156 193.28466797 C-214.87945016 178.03610985 -208.66199657 163.57536603 -201.6484375 149.203125 C-201.18453613 148.2440625 -200.72063477 147.285 -200.24267578 146.296875 C-187.94673191 121.09725179 -172.07275408 97.01338034 -152.828125 76.5390625 C-150.92874967 74.50353123 -149.16311092 72.41659509 -147.3984375 70.265625 C-142.14212642 64.23560458 -135.80242831 59.27838537 -129.6484375 54.203125 C-129.04435059 53.70232422 -128.44026367 53.20152344 -127.81787109 52.68554688 C-91.86446735 22.99374534 -47.69724891 0.21288685 0 0 Z " fill="#292829" transform="translate(236.6484375,-0.203125)"/>
<path d="M0 0 C0.66 0 1.32 0 2 0 C1.7834375 1.29550781 1.566875 2.59101562 1.34375 3.92578125 C-4.44517853 40.12803138 4.93949605 65.86697454 26.12109375 95.44140625 C31.80893964 103.17511019 37.85308219 110.62819364 44 118 C47.97429424 122.81211843 51.9456778 127.62251399 55.765625 132.55859375 C61.28013021 139.83775273 61.28013021 139.83775273 67.5 146.5 C72.43238262 151.18576349 76.40917384 156.74842794 80.55175781 162.12402344 C82.89366605 165.15760788 85.25816446 168.17334619 87.625 171.1875 C88.07633301 171.76274414 88.52766602 172.33798828 88.99267578 172.93066406 C95.67393246 181.75453337 95.67393246 181.75453337 103 190 C105.0854182 190.1238634 107.17500141 190.17799067 109.26391602 190.20532227 C109.91755127 190.21522186 110.57118652 190.22512146 111.24462891 190.23532104 C113.41435064 190.26701634 115.5840943 190.29172492 117.75390625 190.31640625 C119.25463952 190.33696887 120.7553669 190.35796515 122.25608826 190.37937927 C126.21311693 190.43467155 130.17019849 190.48404911 134.12731934 190.53222656 C138.1624016 190.5823895 142.19740672 190.63810268 146.23242188 190.69335938 C154.15488277 190.8010284 162.07740804 190.90245379 170 191 C176.86562946 255.57493825 157.77894149 324.07237973 117.4140625 375.02734375 C113.76771651 379.51742353 109.98625339 383.80901456 106 388 C105.4730957 388.55945313 104.94619141 389.11890625 104.40332031 389.6953125 C75.46414004 420.24312772 36.09879327 440.74093778 -6.48046875 442.203125 C-25.22442548 442.51502762 -43.26515098 440.14292696 -61 434 C-62.11375 433.61972656 -63.2275 433.23945312 -64.375 432.84765625 C-113.95463679 414.80212668 -149.26964867 374.65112944 -171.62548828 327.9934082 C-185.99605258 296.76552245 -195.20616534 261.47393472 -195.1328125 226.99609375 C-195.13376923 225.99159683 -195.13472595 224.98709991 -195.13571167 223.9521637 C-195.13638706 221.85051408 -195.13457794 219.74886231 -195.13037109 217.6472168 C-195.12496261 214.41515524 -195.13036365 211.18322946 -195.13671875 207.95117188 C-195.13605885 205.90364553 -195.13477951 203.85611926 -195.1328125 201.80859375 C-195.13483673 200.83893173 -195.13686096 199.86926971 -195.13894653 198.870224 C-195.13421829 197.53732079 -195.13421829 197.53732079 -195.12939453 196.17749023 C-195.12859894 195.39268784 -195.12780334 194.60788544 -195.12698364 193.79930115 C-195 192 -195 192 -194 191 C-192.17498289 190.9342626 -190.34742082 190.93817444 -188.52148438 190.96923828 C-187.34936401 190.98479767 -186.17724365 191.00035706 -184.96960449 191.01638794 C-183.69057251 191.03418304 -182.41154053 191.05197815 -181.09375 191.0703125 C-177.70083981 191.08406895 -174.30802059 191.09198242 -170.91509247 191.09665108 C-167.36204489 191.1048403 -163.81119825 191.13232246 -160.25878906 191.20214844 C-157.49129678 191.25564138 -154.72661648 191.27968932 -151.95861816 191.27072144 C-149.3528583 191.26229068 -146.74656004 191.29462557 -144.14196777 191.37307739 C-138.84039381 191.30239985 -135.3884671 191.20841689 -131.29125977 187.64251709 C-129.00688075 184.85432731 -127.01035609 181.9889406 -125 179 C-123.52777395 177.3087495 -122.03118144 175.63806629 -120.5 174 C-115.7939741 168.82746371 -111.38665274 163.44386761 -107 158 C-106.36578125 157.23429688 -105.7315625 156.46859375 -105.078125 155.6796875 C-99.17233127 148.48047613 -93.88614895 140.8637775 -88.56005859 133.23339844 C-86.07065175 129.66953399 -83.56769159 126.11527956 -81.0625 122.5625 C-80.57402588 121.86874268 -80.08555176 121.17498535 -79.58227539 120.46020508 C-76.38788661 115.93364829 -73.14924878 111.44149856 -69.88769531 106.96313477 C-62.54127016 96.86021782 -55.89876273 86.94317438 -50.4375 75.6875 C-44.85659476 64.20746568 -38.02513922 53.63800428 -31 43 C-30.2492505 41.84814441 -29.49912801 40.69587957 -28.75 39.54296875 C-21.19844749 28.04258357 -13.36791647 16.60832861 -4.62109375 5.98046875 C-2.95345027 3.99241612 -2.95345027 3.99241612 -1.41015625 1.73828125 C-0.94480469 1.16464844 -0.47945312 0.59101562 0 0 Z " fill="#F9F9F7" transform="translate(262,95)"/>
<path d="M0 0 C2.55933665 2.24414741 5.03742695 4.55244713 7.50390625 6.8984375 C8.34308594 7.68879395 8.34308594 7.68879395 9.19921875 8.49511719 C46.29408788 43.63658629 66.68768909 92.23007407 75.50390625 141.8984375 C75.73078125 143.16042969 75.95765625 144.42242187 76.19140625 145.72265625 C76.97319751 150.39711646 77.54286645 154.84582925 77.52246094 159.5871582 C77.5197821 160.39522415 77.51710327 161.2032901 77.51434326 162.0358429 C77.51089905 162.65049911 77.50745483 163.26515533 77.50390625 163.8984375 C69.05436576 164.1309806 60.60617897 164.30823075 52.15422153 164.41655922 C48.22869279 164.46857564 44.30536525 164.53901398 40.38110352 164.65283203 C36.58779023 164.76215319 32.7965817 164.82141043 29.00181389 164.84720993 C27.56034146 164.8655728 26.11897399 164.90143662 24.67840767 164.95573807 C13.42515334 165.36273424 13.42515334 165.36273424 8.64590454 161.72018433 C6.36816323 159.21526522 4.40934269 156.69288207 2.50390625 153.8984375 C1.64016144 152.80768423 0.77142248 151.72083774 -0.10546875 150.640625 C-1.16507812 149.22136719 -1.16507812 149.22136719 -2.24609375 147.7734375 C-9.73622318 137.86441648 -17.52115653 128.14572557 -25.7734375 118.859375 C-32.22715629 111.51296495 -38.32943322 103.89200836 -44.32373047 96.17016602 C-46.96905172 92.7808771 -49.68985579 89.49021786 -52.5222168 86.25610352 C-63.75386237 73.39002481 -73.19144021 58.80372368 -81.49609375 43.8984375 C-81.85574219 43.25310059 -82.21539062 42.60776367 -82.5859375 41.94287109 C-95.37439852 18.62440947 -95.24144298 -1.65623588 -89.49609375 -27.1015625 C-93.56509944 -23.21920845 -97.02819156 -19.07262569 -100.43359375 -14.6015625 C-101.27458618 -13.49820557 -101.27458618 -13.49820557 -102.13256836 -12.37255859 C-108.39210759 -4.05483916 -114.14814745 4.58448533 -119.81591797 13.3125 C-120.90097579 14.9824989 -121.99081506 16.64940531 -123.08642578 18.3125 C-129.82569409 28.54438182 -135.75637277 39.00254215 -141.3503418 49.90258789 C-147.28714355 61.45240141 -154.47056971 71.74392246 -162.1015625 82.21875 C-165.27629731 86.58209542 -168.39457281 90.98287012 -171.49609375 95.3984375 C-185.47341124 115.26045202 -199.7443256 134.48385353 -216.265625 152.32421875 C-218.4881888 154.72517039 -218.4881888 154.72517039 -219.75970459 157.087677 C-222.16072648 160.92345115 -223.9550304 163.48288716 -228.44218445 164.69285583 C-232.09388519 164.94016512 -235.64694548 164.91046931 -239.3046875 164.77734375 C-240.6398538 164.76053304 -241.97507606 164.74773347 -243.31031799 164.73875427 C-246.80529205 164.70457704 -250.29683688 164.61635649 -253.79046631 164.51641846 C-257.36309414 164.42393081 -260.93628277 164.3831584 -264.50976562 164.33789062 C-271.50660696 164.24170327 -278.50118526 164.08834257 -285.49609375 163.8984375 C-285.5131947 161.83946618 -285.52532675 159.78045324 -285.53540039 157.72143555 C-285.54634483 156.00152657 -285.54634483 156.00152657 -285.55751038 154.24687195 C-285.47269402 149.62268437 -284.81821943 145.24100344 -283.93359375 140.7109375 C-283.75868408 139.78949951 -283.58377441 138.86806152 -283.40356445 137.91870117 C-274.7226412 94.06778377 -257.13307123 52.28314608 -226.5703125 19.16015625 C-224.69487789 17.11519083 -222.90576842 15.02224275 -221.12109375 12.8984375 C-163.24722377 -53.20520299 -65.41004327 -55.07136663 0 0 Z " fill="#FD0000" transform="translate(353.49609375,122.1015625)"/>
<path d="M0 0 C0.33 0 0.66 0 1 0 C1.06993164 0.67877197 1.13986328 1.35754395 1.21191406 2.05688477 C4.86888976 36.78933483 16.34567036 63.68274521 38 91 C38.53028809 91.66918457 39.06057617 92.33836914 39.60693359 93.02783203 C46.72547682 101.96615322 54.09299967 110.68110754 61.55908203 119.32958984 C68.18284942 127.00831171 74.65741575 134.76352053 80.87744141 142.77392578 C83.96448731 146.73265971 87.16235559 150.57120903 90.4375 154.375 C100.7369549 166.44023389 109.75456113 178.86210517 117 193 C117.56460938 194.09957031 118.12921875 195.19914063 118.7109375 196.33203125 C127.86558914 215.17574313 132.11099251 234.71682688 128.92578125 255.59765625 C126.59734862 261.63979157 120.67510208 264.65634426 115.375 267.8125 C110.63816747 270.69935024 106.01207922 273.61569432 101.5625 276.9375 C56.42191306 310.40726654 56.42191306 310.40726654 32 312 C29.8427857 309.8427857 30.8287004 305.10138297 30.81054688 302.22631836 C30.81151367 300.41272827 30.81151367 300.41272827 30.8125 298.5625 C30.81185547 297.33217041 30.81121094 296.10184082 30.81054688 294.83422852 C30.85006719 287.96802357 31.1060244 281.24522905 32 274.4375 C32.78317966 268.40764201 33.27479285 262.45820022 33.375 256.375 C33.40078125 255.6523999 33.4265625 254.9297998 33.453125 254.18530273 C33.47344446 248.72508188 31.99913747 244.56751188 29 240 C26.29119745 237.42333416 24.53685217 236.17895072 21 235 C19.74670378 232.84976648 18.64373621 230.7346297 17.5625 228.5 C9.54536253 212.75320731 -1.85800412 198.94937651 -13.00390625 185.32421875 C-28.17084891 166.72919794 -41.58891459 146.00597604 -49 123 C-49.24105469 122.33097656 -49.48210937 121.66195312 -49.73046875 120.97265625 C-53.94413738 107.59637933 -50.06737776 93.84015333 -46 81 C-45.79133301 80.32888184 -45.58266602 79.65776367 -45.36767578 78.96630859 C-36.69749371 51.79697911 -19.47240756 20.89721787 0 0 Z " fill="#F69200" transform="translate(254,112)"/>
<path d="M0 0 C-0.4034044 7.15202385 -2.75319032 12.48078648 -6 18.8125 C-6.49693359 19.79009277 -6.99386719 20.76768555 -7.50585938 21.77490234 C-11.29455022 29.03817682 -15.34156775 35.04526471 -21 41 C-21.89822433 41.98610863 -22.79394199 42.97450478 -23.6875 43.96484375 C-25.91583808 46.42600474 -28.17037282 48.86134288 -30.43383789 51.2902832 C-31.56384284 52.5238646 -32.67839715 53.77166166 -33.78295898 55.02807617 C-40.52361958 62.6680249 -47.69853817 69.85034415 -54.91137695 77.04174805 C-57.06512522 79.19011866 -59.21345226 81.34380694 -61.36132812 83.49804688 C-62.75228354 84.88834168 -64.14354903 86.27832636 -65.53515625 87.66796875 C-66.16559341 88.30043015 -66.79603058 88.93289154 -67.4455719 89.58451843 C-71.80295463 93.91942174 -76.33759214 97.99661469 -81 102 C-82.1059507 102.96168562 -83.21150383 103.92382892 -84.31640625 104.88671875 C-138.40253187 151.67282589 -138.40253187 151.67282589 -170.25 160.875 C-171.36810059 161.1989978 -171.36810059 161.1989978 -172.50878906 161.52954102 C-180.4913141 163.6672733 -186.38041578 163.86942505 -193.875 159.75 C-198.81622046 157.0999451 -203.72554932 154.80535049 -209.01171875 152.921875 C-211.35236732 151.8366234 -212.43974715 151.07151599 -214 149 C-215.26399418 138.97015641 -213.55819017 128.50394019 -212.08349609 118.57397461 C-211.74902205 116.30586843 -211.4380484 114.03535387 -211.12890625 111.76367188 C-209.41114107 99.58940908 -206.67614921 88.70210337 -199.9375 78.25 C-199.45708252 77.4861499 -198.97666504 76.7222998 -198.48168945 75.93530273 C-185.46713769 55.41292705 -171.47878305 33.59006177 -153.6875 16.875 C-149.8211919 13.19017167 -147.71915104 9.05384533 -145.51953125 4.22265625 C-144 2 -144 2 -141.46484375 1.07421875 C-139 1 -139 1 -136.75 2.75 C-133.55639906 6.85605836 -133.64115868 11.00201328 -134 16 C-134.47321099 18.75389973 -135.19019125 21.38984829 -136 24.0625 C-136.21857666 24.793479 -136.43715332 25.52445801 -136.66235352 26.27758789 C-139.77517921 36.10181427 -144.89852194 44.73366163 -150.4375 53.375 C-153.14686986 57.83139524 -154.40165052 61.75846067 -154 67 C-153.07526197 70.32905692 -152.33463702 72.15707136 -149.3671875 74.03125 C-136.69378712 79.57265583 -121.40488378 74.2999276 -109.23706055 69.671875 C-94.71492934 63.82073346 -81.53131524 54.97224998 -68.41308594 46.54101562 C-65.97566323 44.98445835 -63.52563498 43.45001956 -61.0703125 41.921875 C-43.229717 30.8107983 -27.30951798 19.28964159 -13.125 3.625 C-8.86426887 -0.76558199 -5.94323744 -0.84903392 0 0 Z " fill="#D29759" transform="translate(417,353)"/>
<path d="M0 0 C0.03440186 0.66829834 0.06880371 1.33659668 0.10424805 2.02514648 C2.21544836 40.1805916 18.3139799 64.53398898 40.45166016 94.87207031 C73.0692074 139.69933959 73.0692074 139.69933959 72.94921875 145.421875 C71.72432605 148.74874406 69.90340261 151.42421439 67.8125 154.25 C67.15471558 155.15637207 67.15471558 155.15637207 66.48364258 156.08105469 C62.34005572 161.70699918 57.86714324 167.04633926 53.38598633 172.40380859 C47.44925852 179.55412164 42.06809516 187.05763816 36.68701172 194.62939453 C33.66713072 198.87296104 30.62361215 203.09859641 27.5625 207.3125 C26.9953125 208.1070459 26.428125 208.9015918 25.84375 209.72021484 C22.59771421 214.17584021 19.40312867 217.67274892 15 221 C12.70535711 214.39021008 10.44936797 207.79456968 8.6484375 201.03125 C2.42403435 177.66875457 -8.42594904 157.95943875 -21.625 137.875 C-35.218746 117.11658271 -46.80371699 94.40046693 -42.63378906 68.74707031 C-39.59919588 54.68447528 -15.62656782 0 0 0 Z " fill="#02C255" transform="translate(198,203)"/>
<path d="M0 0 C-0.01047363 0.82089111 -0.02094727 1.64178223 -0.03173828 2.48754883 C-0.06619827 5.58698453 -0.0910803 8.6863213 -0.10986328 11.78588867 C-0.12464917 13.76552896 -0.15008592 15.74508063 -0.17578125 17.72460938 C-0.29885785 42.03223737 10.26901205 59.91720192 22.47045898 80.12695312 C56.41665753 136.41720569 56.41665753 136.41720569 56 161 C48.86566643 159.12663335 42.55356305 156.54724771 36.0625 153.0625 C35.15935059 152.58304932 34.25620117 152.10359863 33.32568359 151.60961914 C23.91564817 146.5384458 14.93026934 140.86459417 6 135 C4.70447378 134.15878224 3.40890315 133.31763288 2.11328125 132.4765625 C-7.10922551 126.4455748 -16.04043414 120.02242613 -24.92431641 113.50585938 C-26.82228538 112.12892776 -28.73845063 110.78529714 -30.66796875 109.453125 C-37.55585655 104.58713849 -41.59519709 100.99446722 -43.5703125 92.56640625 C-47.10569316 71.45054177 -39.89619991 51.01414499 -28 34 C-24.58918083 29.22530552 -21.05500909 24.54971283 -17.46826172 19.90625 C-16.03076936 18.03994798 -14.60899685 16.16269746 -13.19140625 14.28125 C-2.3740021 0 -2.3740021 0 0 0 Z " fill="#018CD8" transform="translate(152,263)"/>
<path d="M0 0 C8.43698178 0.21633287 14.22447506 7.25377396 20 12.6875 C27.11800658 19.23131411 35.01184309 24.58038229 43 30 C43.75297363 30.51385254 44.50594727 31.02770508 45.28173828 31.55712891 C55.31896006 38.39376618 65.48642064 44.92176317 76 51 C76.8362793 51.48581543 77.67255859 51.97163086 78.53417969 52.47216797 C101.66124578 65.9476129 101.66124578 65.9476129 126 77 C125.4368112 84.83524064 122.96725846 92.00026688 120.5625 99.4375 C118.05410206 107.24063811 115.6022469 114.95374369 114 123 C98.49804261 120.87720944 82.05851591 102.24564053 71.0625 91.8515625 C68.80225603 89.71944773 66.48153956 87.67414723 64.12890625 85.64453125 C59.88864 81.95357451 55.89987488 78.04793429 51.9375 74.0625 C51.26912109 73.39798828 50.60074219 72.73347656 49.91210938 72.04882812 C46.01889457 68.14804633 42.31711547 64.13852066 38.71704102 59.96655273 C35.89423655 56.7335526 32.9430063 53.62322365 30 50.5 C0.32976676 18.79670536 0.32976676 18.79670536 0 0 Z " fill="#D2975A" transform="translate(83,353)"/>
<path d="M0 0 C4.07160513 2.53602834 6.52303816 5.69411449 8.05078125 10.27734375 C8.75091052 17.02859024 8.8867969 22.9725508 4.7265625 28.5859375 C0.45598614 32.89633275 -4.40541486 35.51290865 -10.51171875 35.83984375 C-16.66076399 35.44278498 -21.70440863 32.97991055 -25.82421875 28.40234375 C-29.41235552 23.12567203 -31.12422595 17.67993398 -29.94921875 11.27734375 C-27.29565299 5.24651249 -23.43469465 1.16138477 -17.63671875 -1.97265625 C-11.06746992 -3.80593499 -6.02105428 -2.92213515 0 0 Z " fill="#F1F1F1" transform="translate(260.94921875,566.72265625)"/>
<path d="M0 0 C3.16961356 1.28133314 4.57820229 2.5200233 6.8125 5.0625 C8.578959 9.43216175 8.90841161 13.36421696 8 18 C5.72155001 21.97654007 3.37009421 24.54330193 -1 26 C-5.68953585 26.38438818 -8.06443464 26.45895659 -12.3125 24.375 C-16.35070586 20.80635297 -17.77134963 17.82920294 -18.4375 12.5 C-17.82378807 7.59030455 -15.81881072 4.63654184 -12.16796875 1.3515625 C-8.3604418 -1.02213899 -4.3366839 -0.5139252 0 0 Z " fill="#2B2B2C" transform="translate(255,570)"/>
<path d="M0 0 C0.3125 2.8125 0.3125 2.8125 0 6 C-2.25 7.5 -2.25 7.5 -5 9 C-7.49072981 12.02926599 -8.85317422 14.11904534 -9.5 18 C-8.74138826 22.55167046 -6.57899969 25.55800679 -3.19921875 28.64453125 C0.86683685 31.15060814 5.40108769 30.7369177 10 30 C13.14954095 27.93580788 13.14954095 27.93580788 15 25 C15.680625 24.071875 15.680625 24.071875 16.375 23.125 C17.34011808 19.84359854 16.79025489 17.28259722 16 14 C15.01 13.34 14.02 12.68 13 12 C11.02 14.97 11.02 14.97 9 18 C7.68 17.67 6.36 17.34 5 17 C5.65784963 13.70319035 6.89420573 11.15882078 8.5625 8.25 C9.01753906 7.45078125 9.47257812 6.6515625 9.94140625 5.828125 C10.29074219 5.22484375 10.64007813 4.6215625 11 4 C16.62586863 5.76813014 19.77840563 9.16760844 23 14 C23.91445962 18.88032659 23.40190461 22.96807482 20.875 27.25 C17.40307989 32.17345733 13.026456 36.59849861 7 38 C0.21706906 38.22174967 -4.75643691 36.23518557 -10 32 C-14.80257798 26.95113597 -15.4177198 22.38771737 -15.34765625 15.6015625 C-14.60301177 10.02927912 -11.38554477 6.28657728 -7.375 2.5625 C-4.8886663 0.92675415 -3.0085909 0 0 0 Z " fill="#F2F2F2" transform="translate(411,464)"/>
<path d="M0 0 C5.67813755 3.05745868 8.79615605 5.67996497 11.25 11.75 C11.25 12.74 11.25 13.73 11.25 14.75 C9 15.125 9 15.125 6.25 14.75 C4.1875 11.9375 4.1875 11.9375 2.25 8.75 C-1.47518914 5.32923492 -4.37172313 5.18353166 -9.2734375 5.328125 C-13.35815663 6.02394466 -14.98009281 7.70310209 -17.75 10.75 C-20.07135085 14.54075812 -19.95080766 17.2586921 -19.36328125 21.5625 C-18.08433401 26.12435004 -14.50612439 28.24591707 -10.75 30.75 C-6.67509248 31.08957563 -5.21998729 31.06332486 -1.75 28.75 C-1.75 28.09 -1.75 27.43 -1.75 26.75 C-4.21326712 25.1053326 -4.21326712 25.1053326 -6.75 23.75 C-6.42 22.1 -6.09 20.45 -5.75 18.75 C-1.07894208 20.30701931 2.33705685 22.83447373 6.25 25.75 C5.2993171 30.66012047 2.42948512 33.17175215 -1.5625 36.0625 C-5.65165478 37.34766293 -9.6402832 37.5530815 -13.6484375 36.02734375 C-20.23000419 32.47789621 -24.39668454 27.9338051 -26.75 20.75 C-27.70673214 14.29205808 -25.40559811 9.90379406 -21.75 4.75 C-15.12489438 -1.55192974 -8.64849542 -2.88283181 0 0 Z " fill="#F3F3F3" transform="translate(157.75,534.25)"/>
<path d="M0 0 C-1.37959887 2.92821193 -2.96813949 5.49529611 -4.86328125 8.1171875 C-5.42080078 8.88933594 -5.97832031 9.66148437 -6.55273438 10.45703125 C-7.13345703 11.25496094 -7.71417969 12.05289062 -8.3125 12.875 C-8.88162109 13.66519531 -9.45074219 14.45539063 -10.03710938 15.26953125 C-13.21314325 19.65253093 -16.47786819 23.88974487 -20 28 C-18.28103516 27.7834375 -18.28103516 27.7834375 -16.52734375 27.5625 C-14.99742285 27.37477964 -13.46747339 27.18729203 -11.9375 27 C-10.80924805 26.85691406 -10.80924805 26.85691406 -9.65820312 26.7109375 C-5.06578683 26.15428098 -0.6257865 25.90170972 4 26 C4.042721 27.66611905 4.04063832 29.33382885 4 31 C2.10112619 32.89887381 -1.15669854 32.64500304 -3.703125 32.97265625 C-4.37792908 33.06002548 -5.05273315 33.14739471 -5.74798584 33.2374115 C-7.18019608 33.42181523 -8.61268171 33.60409048 -10.04541016 33.78442383 C-12.2276449 34.05968024 -14.40875504 34.3427746 -16.58984375 34.62695312 C-28.26232022 36.12143552 -28.26232022 36.12143552 -33 36 C-28.58200412 28.91910249 -23.51453865 22.35511454 -18.4074707 15.76586914 C-17.85406006 15.05035889 -17.30064941 14.33484863 -16.73046875 13.59765625 C-16.22926514 12.95320557 -15.72806152 12.30875488 -15.21166992 11.64477539 C-13.93122826 10.00448707 -13.93122826 10.00448707 -13 8 C-23.89 8.495 -23.89 8.495 -35 9 C-35 7.35 -35 5.7 -35 4 C-10.57798834 -0.22995627 -10.57798834 -0.22995627 0 0 Z " fill="#F2F2F2" transform="translate(55,339)"/>
<path d="M0 0 C11.88 0 23.76 0 36 0 C31.52390983 5.22210519 27.00894733 10.30016897 22.3125 15.3125 C21.64927734 16.02728516 20.98605469 16.74207031 20.30273438 17.47851562 C19.66271484 18.16236328 19.02269531 18.84621094 18.36328125 19.55078125 C17.78876221 20.16606689 17.21424316 20.78135254 16.62231445 21.4152832 C15 23 15 23 12 25 C19.59 25.33 27.18 25.66 35 26 C35 27.98 35 29.96 35 32 C22.79 32 10.58 32 -2 32 C-2 31.34 -2 30.68 -2 30 C-0.56640625 28.58764648 -0.56640625 28.58764648 1.4375 26.93359375 C6.20723174 22.87784963 10.59988853 18.51178202 15 14.0625 C17.64 11.401875 20.28 8.74125 23 6 C11.615 5.505 11.615 5.505 0 5 C0 3.35 0 1.7 0 0 Z " fill="#F1F1F2" transform="translate(446,300)"/>
<path d="M0 0 C0.33 0 0.66 0 1 0 C1.33 11.55 1.66 23.1 2 35 C6.77045362 30.03184141 6.77045362 30.03184141 11.51269531 25.03686523 C12.41133301 24.11949585 12.41133301 24.11949585 13.328125 23.18359375 C13.9355957 22.54993896 14.54306641 21.91628418 15.16894531 21.26342773 C17 20 17 20 19.22949219 20.30102539 C19.81375977 20.53168701 20.39802734 20.76234863 21 21 C21 25 21 25 19.35107422 27.13476562 C18.5932666 27.88435547 17.83545898 28.63394531 17.0546875 29.40625 C16.22453125 30.23253906 15.394375 31.05882812 14.5390625 31.91015625 C13.65992188 32.76480469 12.78078125 33.61945312 11.875 34.5 C11.0190625 35.35464844 10.163125 36.20929687 9.28125 37.08984375 C4.97141288 41.3400062 1.10741878 44.59505414 -4 48 C-4.33 36.45 -4.66 24.9 -5 13 C-10.28 18.28 -15.56 23.56 -21 29 C-22.32 28.01 -23.64 27.02 -25 26 C-21.74319265 18.40649655 -14.01232449 12.90754977 -7.859375 7.640625 C-6.0152771 6.01347979 -4.28464709 4.3174499 -2.5625 2.5625 C-1.716875 1.716875 -0.87125 0.87125 0 0 Z " fill="#F6F6F6" transform="translate(116,497)"/>
<path d="M0 0 C-0.33 1.98 -0.66 3.96 -1 6 C-4.3 6.66 -7.6 7.32 -11 8 C-11.16249454 10.41936317 -11.28097817 12.82781859 -11.375 15.25 C-11.42527344 15.93191406 -11.47554688 16.61382812 -11.52734375 17.31640625 C-11.6568371 19.61634637 -11.6568371 19.61634637 -11 23 C-8.08633505 25.31779204 -8.08633505 25.31779204 -5 27 C-4.625 30.25 -4.625 30.25 -5 33 C-9.07021067 31.53751698 -12.45481816 29.5555121 -16.0703125 27.19140625 C-16.63321991 26.8240184 -17.19612732 26.45663055 -17.77609253 26.07810974 C-18.9590753 25.30447419 -20.1406242 24.52864209 -21.32080078 23.75073242 C-23.12269283 22.56401949 -24.93008117 21.38605733 -26.73828125 20.20898438 C-27.89096274 19.45364015 -29.04331786 18.6977976 -30.1953125 17.94140625 C-31.23703613 17.25763916 -32.27875977 16.57387207 -33.35205078 15.86938477 C-35.49208577 14.35857452 -37.24905816 12.9302461 -39 11 C-32.16957736 8.27785112 -25.21467643 6.30705963 -18.125 4.375 C-15.87710678 3.75962652 -13.6296848 3.14252821 -11.3828125 2.5234375 C-10.39684082 2.25450684 -9.41086914 1.98557617 -8.39501953 1.70849609 C-2.61957271 0 -2.61957271 0 0 0 Z " fill="#F1F1F1" transform="translate(480,345)"/>
<path d="M0 0 C4.08090819 2.04045409 7.1633302 4.5305943 10.5625 7.5 C11.17512695 8.02956299 11.78775391 8.55912598 12.41894531 9.10473633 C17.32330495 13.36201063 22.12928844 17.72050866 26.890625 22.13671875 C28.85975474 24.03694704 28.85975474 24.03694704 31 25 C31 25.66 31 26.32 31 27 C27.8125 27.8125 27.8125 27.8125 24 28 C21.0625 25.5625 21.0625 25.5625 19 23 C17.58208592 23.45445964 16.16571954 23.91374944 14.75 24.375 C13.96109375 24.63023437 13.1721875 24.88546875 12.359375 25.1484375 C11.58078125 25.42945313 10.8021875 25.71046875 10 26 C8.88625 26.38671875 8.88625 26.38671875 7.75 26.78125 C5.75168223 27.88991857 5.75168223 27.88991857 5.390625 30.3828125 C5.34421875 31.28773438 5.2978125 32.19265625 5.25 33.125 C5.19328125 34.03507813 5.1365625 34.94515625 5.078125 35.8828125 C5.05234375 36.58148437 5.0265625 37.28015625 5 38 C3.35 38.66 1.7 39.32 0 40 C0 26.8 0 13.6 0 0 Z " fill="#F4F4F4" transform="translate(313,550)"/>
<path d="M0 0 C-0.33 1.98 -0.66 3.96 -1 6 C-4.3 6.33 -7.6 6.66 -11 7 C-13.8169065 13.84219802 -13.8169065 13.84219802 -14 21 C-13.154375 21.804375 -12.30875 22.60875 -11.4375 23.4375 C-10.633125 24.283125 -9.82875 25.12875 -9 26 C-9.1875 29.3125 -9.1875 29.3125 -10 32 C-14.3490448 30.34271836 -17.09170125 27.08863887 -20.25 23.8125 C-24.41984895 19.55334718 -28.59422778 15.43334597 -33.21875 11.66015625 C-35.73954231 9.31073359 -37.80737715 6.65853279 -40 4 C-34.94660347 3.42751519 -29.89289164 2.85793023 -24.83886719 2.29101562 C-23.12002764 2.09780016 -21.40127653 1.90379627 -19.68261719 1.70898438 C-17.21051564 1.42890813 -14.73810866 1.15168015 -12.265625 0.875 C-11.11540863 0.74375732 -11.11540863 0.74375732 -9.94195557 0.60986328 C-6.59505805 0.23782983 -3.37310009 0 0 0 Z " fill="#F4F4F4" transform="translate(465,414)"/>
<path d="M0 0 C7.31232793 12.03487305 7.31232793 12.03487305 6 18 C2.79520377 21.87949018 0.69366403 23.80826445 -4.3125 24.375 C-8 24 -8 24 -10.8125 21.75 C-12.59299706 19.51166083 -13.92824033 17.63068283 -15 15 C-18.53569464 16.03483745 -21.56338883 17.26650398 -24.6875 19.1875 C-25.780625 19.785625 -26.87375 20.38375 -28 21 C-28.99 20.67 -29.98 20.34 -31 20 C-31.6875 17.9375 -31.6875 17.9375 -32 16 C-31.29915283 15.62190186 -30.59830566 15.24380371 -29.8762207 14.85424805 C-26.68766688 13.13319413 -23.50007542 11.41036529 -20.3125 9.6875 C-19.20970703 9.09259766 -18.10691406 8.49769531 -16.97070312 7.88476562 C-15.90400391 7.30791016 -14.83730469 6.73105469 -13.73828125 6.13671875 C-12.75899658 5.60780029 -11.77971191 5.07888184 -10.77075195 4.53393555 C-8.92526775 3.51224401 -7.10963483 2.43466166 -5.32885742 1.30395508 C-3 0 -3 0 0 0 Z " fill="#F4F4F4" transform="translate(84,445)"/>
<path d="M0 0 C1.24716797 0.01289063 2.49433594 0.02578125 3.77929688 0.0390625 C5.07287109 0.07257813 6.36644531 0.10609375 7.69921875 0.140625 C9.01212891 0.15867187 10.32503906 0.17671875 11.67773438 0.1953125 C14.91480363 0.24239714 18.15038928 0.30815458 21.38671875 0.390625 C21.38671875 2.040625 21.38671875 3.690625 21.38671875 5.390625 C20.68587158 5.40520752 19.98502441 5.41979004 19.26293945 5.43481445 C16.07448866 5.50947987 12.88706362 5.60607975 9.69921875 5.703125 C8.59642578 5.72568359 7.49363281 5.74824219 6.35742188 5.77148438 C4.75737305 5.8246582 4.75737305 5.8246582 3.125 5.87890625 C2.14571533 5.90509033 1.16643066 5.93127441 0.1574707 5.95825195 C-3.0646975 6.46106805 -5.00447993 7.45485524 -7.61328125 9.390625 C-8.32777094 11.78257725 -8.32777094 11.78257725 -8.11328125 14.390625 C-8.10296875 15.256875 -8.09265625 16.123125 -8.08203125 17.015625 C-7.51119871 19.90784323 -6.96452793 20.63993325 -4.61328125 22.390625 C-1.7124047 22.89727117 -1.7124047 22.89727117 1.5859375 22.90234375 C3.39868164 22.95551758 3.39868164 22.95551758 5.24804688 23.00976562 C7.14200195 23.04360352 7.14200195 23.04360352 9.07421875 23.078125 C10.98557617 23.12936523 10.98557617 23.12936523 12.93554688 23.18164062 C16.08584978 23.26423284 19.23587032 23.33334835 22.38671875 23.390625 C22.38671875 25.370625 22.38671875 27.350625 22.38671875 29.390625 C17.99094114 29.44877612 13.59526277 29.48427267 9.19921875 29.515625 C7.33040039 29.54076172 7.33040039 29.54076172 5.42382812 29.56640625 C4.22177734 29.57285156 3.01972656 29.57929688 1.78125 29.5859375 C0.12379761 29.60164795 0.12379761 29.60164795 -1.56713867 29.61767578 C-6.14016535 29.27681541 -8.74453628 28.33176539 -11.86328125 24.953125 C-15.22091984 20.03658278 -15.12149837 15.15657924 -14.61328125 9.390625 C-11.8245748 2.63901992 -7.15793909 -0.13073861 0 0 Z " fill="#F6F6F6" transform="translate(31.61328125,296.609375)"/>
<path d="M0 0 C0 6.93 0 13.86 0 21 C2.10375 21.28875 4.2075 21.5775 6.375 21.875 C12.29981399 22.71796134 18.15190816 23.7333626 24 25 C23 28 23 28 20 30 C14.80024842 30.35640892 10.10386292 29.59759318 5.0625 28.5 C2.731875 28.005 0.40125 27.51 -2 27 C1.3 30.96 4.6 34.92 8 39 C7.01 40.32 6.02 41.64 5 43 C0.61796732 41.41412151 -1.8689357 37.97357816 -4.75 34.5 C-5.2749707 33.87722168 -5.79994141 33.25444336 -6.34082031 32.61279297 C-10.64978503 27.48024937 -14.86714534 22.27546742 -19 17 C-18.34 15.68 -17.68 14.36 -17 13 C-13.4628562 13.56132934 -12.00738321 14.69557747 -9.75 17.4375 C-9.22921875 18.05496094 -8.7084375 18.67242188 -8.171875 19.30859375 C-7 21 -7 21 -7 23 C-6.34 23 -5.68 23 -5 23 C-5.02094727 22.40985107 -5.04189453 21.81970215 -5.06347656 21.21166992 C-5.14663683 18.53712001 -5.19865691 15.86284185 -5.25 13.1875 C-5.28351563 12.25873047 -5.31703125 11.32996094 -5.3515625 10.37304688 C-5.36445313 9.48037109 -5.37734375 8.58769531 -5.390625 7.66796875 C-5.41157227 6.84578857 -5.43251953 6.0236084 -5.45410156 5.17651367 C-5 3 -5 3 -3.03808594 1.20825195 C-1 0 -1 0 0 0 Z " fill="#F4F4F4" transform="translate(364,517)"/>
<path d="M0 0 C1.32 0.66 2.64 1.32 4 2 C2.34908222 6.29238623 -0.73754566 8.8793915 -4 12 C-2.48601545 15.78496138 -1.9855604 16.0072198 2 18 C4.64 15.36 7.28 12.72 10 10 C11.32 10.66 12.64 11.32 14 12 C12.34908222 16.29238623 9.26245434 18.8793915 6 22 C7.49097658 25.7952131 9.75700849 27.61042731 13 30 C13.53109375 29.41089844 14.0621875 28.82179688 14.609375 28.21484375 C15.31578125 27.46332031 16.0221875 26.71179688 16.75 25.9375 C17.44609375 25.18339844 18.1421875 24.42929687 18.859375 23.65234375 C21 22 21 22 23.265625 22.25390625 C23.83796875 22.50011719 24.4103125 22.74632812 25 23 C25 27 25 27 22.375 30.015625 C21.25999428 31.10408297 20.13452915 32.18190725 19 33.25 C18.42765625 33.80429687 17.8553125 34.35859375 17.265625 34.9296875 C15.85256943 36.29564122 14.42741242 37.64905611 13 39 C7.76926495 34.58399986 2.7296534 30.00879626 -2.25 25.3125 C-2.95640625 24.64927734 -3.6628125 23.98605469 -4.390625 23.30273438 C-7.29726722 20.56949979 -10.19111976 17.83409364 -13 15 C-11.38989473 10.92623969 -8.46177729 8.23492931 -5.375 5.25 C-4.859375 4.74339844 -4.34375 4.23679687 -3.8125 3.71484375 C-2.54616661 2.47196098 -1.2736856 1.23534724 0 0 Z " fill="#F1F1F1" transform="translate(385,494)"/>
<path d="M0 0 C3.28419107 3.28419107 5.83197751 5.85123621 8.375 9.5625 C9.16003906 10.67818359 9.16003906 10.67818359 9.9609375 11.81640625 C11 14 11 14 10.8515625 16.21484375 C10.57054687 16.80394531 10.28953125 17.39304687 10 18 C9.01 18.33 8.02 18.66 7 19 C5.9944239 17.54550599 4.99569565 16.08627557 4 14.625 C3.443125 13.81289063 2.88625 13.00078125 2.3125 12.1640625 C1 10 1 10 1 8 C-1.31 9.32 -3.62 10.64 -6 12 C-4.9158653 15.07171498 -3.69501993 17.4574701 -1.875 20.1875 C0 23 0 23 0 25 C-1.98 25.99 -1.98 25.99 -4 27 C-6.31 23.7 -8.62 20.4 -11 17 C-14.65832872 17.91458218 -16.87701826 19.00476166 -20 21 C-18.90621639 24.09905357 -17.71381455 26.40883636 -15.8125 29.125 C-14.9153125 30.548125 -14.9153125 30.548125 -14 32 C-14.33 32.99 -14.66 33.98 -15 35 C-16.485 35.495 -16.485 35.495 -18 36 C-19.27653929 34.29592618 -20.5459704 32.58652649 -21.8125 30.875 C-22.52019531 29.92367188 -23.22789063 28.97234375 -23.95703125 27.9921875 C-26 25 -26 25 -29 19 C-14.645 9.595 -14.645 9.595 0 0 Z " fill="#F3F3F3" transform="translate(99,473)"/>
<path d="M0 0 C4.59645377 0.70215766 8.54699882 1.84013218 12.875 3.5625 C14.02742188 4.01753906 15.17984375 4.47257813 16.3671875 4.94140625 C17.67042969 5.46541016 17.67042969 5.46541016 19 6 C18.67 7.65 18.34 9.3 18 11 C12.89731263 10.34158873 8.62746541 8.14106609 4 6 C3.01 8.97 2.02 11.94 1 15 C1.99 15.1546875 1.99 15.1546875 3 15.3125 C6.83841009 16.19213564 10.33096691 17.56969896 14 19 C13.67 20.65 13.34 22.3 13 24 C7.94744036 23.36843005 3.70406799 21.86540627 -1 20 C-1.99 23.3 -2.98 26.6 -4 30 C-0.04 31.65 3.92 33.3 8 35 C7.01 37.475 7.01 37.475 6 40 C-0.20477864 38.06375702 -6.10825719 35.74390859 -12 33 C-11.40405108 28.4992514 -10.23171075 24.69723284 -8.49609375 20.5078125 C-7.75649414 18.70957031 -7.75649414 18.70957031 -7.00195312 16.875 C-6.48060478 15.62494326 -5.95911869 14.37494396 -5.4375 13.125 C-4.91153536 11.85179948 -4.3861391 10.578364 -3.86132812 9.3046875 C-2.57978638 6.20076989 -1.29251196 3.09936178 0 0 Z " fill="#F3F3F3" transform="translate(181,550)"/>
<path d="M0 0 C1.89355469 0.24291992 1.89355469 0.24291992 4 1 C5.00488281 2.79418945 5.00488281 2.79418945 5.703125 5.11328125 C6.08984375 6.3672168 6.08984375 6.3672168 6.484375 7.64648438 C6.73703125 8.52626953 6.9896875 9.40605469 7.25 10.3125 C7.518125 11.18068359 7.78625 12.04886719 8.0625 12.94335938 C9.2418228 16.8634043 10 19.85722486 10 24 C8.35 24.33 6.7 24.66 5 25 C4.34 22.03 3.68 19.06 3 16 C2.16227051 16.27263672 1.32454102 16.54527344 0.46142578 16.82617188 C-2.64264079 17.83485342 -5.74753834 18.84092202 -8.85302734 19.84521484 C-10.19776866 20.28068891 -11.54217217 20.71720755 -12.88623047 21.15478516 C-14.81650666 21.78301527 -16.74796046 22.40749754 -18.6796875 23.03125 C-19.84226074 23.40830078 -21.00483398 23.78535156 -22.20263672 24.17382812 C-25 25 -25 25 -27 25 C-27.33 23.02 -27.66 21.04 -28 19 C-23.91972749 17.65717071 -19.83531809 16.32739205 -15.75 15 C-14.59113281 14.6184375 -13.43226562 14.236875 -12.23828125 13.84375 C-11.12324219 13.4828125 -10.00820313 13.121875 -8.859375 12.75 C-7.83295898 12.41484375 -6.80654297 12.0796875 -5.74902344 11.734375 C-3 11 -3 11 1 11 C0.649375 10.113125 0.29875 9.22625 -0.0625 8.3125 C-1.01755602 4.93796874 -0.97151132 3.30313848 0 0 Z " fill="#F1F1F1" transform="translate(64,401)"/>
<path d="M0 0 C1.32 0.33 2.64 0.66 4 1 C3.54177532 4.46941546 3.10868317 7.67395049 2 11 C3.27875 11.226875 4.5575 11.45375 5.875 11.6875 C14.03519937 13.3030308 22.00655801 15.71864728 30 18 C30.495 20.475 30.495 20.475 31 23 C26.59717709 24.28381378 23.76883011 23.61000809 19.4375 22.25 C12.99952248 20.29209343 6.53966797 18.58101863 0 17 C-0.33 19.31 -0.66 21.62 -1 24 C-4 25 -4 25 -7 24 C-2.96127563 7.1070615 -2.96127563 7.1070615 0 0 Z " fill="#F1F1F1" transform="translate(440,374)"/>
<path d="M0 0 C0.33 0 0.66 0 1 0 C1 9.24 1 18.48 1 28 C-8 29 -8 29 -11.0625 27.125 C-13.18952635 23.69431233 -14.07430142 21.69464389 -13.8984375 17.68359375 C-11.56746596 10.72108311 -5.08000169 5.08000169 0 0 Z " fill="#07C358" transform="translate(281,396)"/>
<path d="M0 0 C1.01009266 3.72650762 2.00628554 7.45659459 3 11.1875 C3.28617187 12.24259766 3.57234375 13.29769531 3.8671875 14.38476562 C4.13789063 15.40634766 4.40859375 16.42792969 4.6875 17.48046875 C5.06455078 18.88655396 5.06455078 18.88655396 5.44921875 20.32104492 C5.9922969 22.96253273 6.1023122 25.31217316 6 28 C6.75925781 27.7834375 7.51851563 27.566875 8.30078125 27.34375 C9.29464844 27.0653125 10.28851563 26.786875 11.3125 26.5 C12.29863281 26.2215625 13.28476562 25.943125 14.30078125 25.65625 C17 25 17 25 20 25 C20 26.98 20 28.96 20 31 C17.5636811 31.67126129 15.12611117 32.33716354 12.6875 33 C11.99720703 33.19078125 11.30691406 33.3815625 10.59570312 33.578125 C7.64212051 34.37716184 5.07440781 35 2 35 C0.85444163 30.659979 -0.28469786 26.31833905 -1.41796875 21.97509766 C-1.80423656 20.49840102 -2.19224196 19.02215774 -2.58203125 17.54638672 C-3.14262096 15.42272417 -3.69690226 13.29749939 -4.25 11.171875 C-4.42499023 10.51443298 -4.59998047 9.85699097 -4.78027344 9.17962646 C-5.61212245 5.95778067 -6 3.36469002 -6 0 C-3.50907189 -1.24546405 -2.58919267 -0.7767578 0 0 Z " fill="#F0F0F0" transform="translate(283,563)"/>
<path d="M0 0 C1.65 0.33 3.3 0.66 5 1 C4.48089929 8.24770968 3.20271888 15.08390284 1.4375 22.125 C1.08655273 23.55972656 1.08655273 23.55972656 0.72851562 25.0234375 C0.15838044 27.35051988 -0.41785223 29.67589932 -1 32 C-0.07767578 32.09087891 -0.07767578 32.09087891 0.86328125 32.18359375 C1.67152344 32.26738281 2.47976562 32.35117187 3.3125 32.4375 C4.11300781 32.51871094 4.91351563 32.59992187 5.73828125 32.68359375 C8 33 8 33 11 34 C10.67 35.65 10.34 37.3 10 39 C4.2190275 38.36934845 -1.3443706 37.34844868 -7 36 C-8.33917723 31.45893727 -7.55773349 28.25429596 -6.34765625 23.73046875 C-6.07918129 22.70896477 -6.07918129 22.70896477 -5.80528259 21.66682434 C-5.23442917 19.50422511 -4.64872626 17.34597691 -4.0625 15.1875 C-3.67153732 13.7170594 -3.28155248 12.24635844 -2.89257812 10.77539062 C-1.93969029 7.18050933 -0.97344898 3.58937534 0 0 Z " fill="#F2F2F2" transform="translate(211,560)"/>
<path d="M0 0 C4.18041516 0.63735312 7.55437301 2.04700325 11.359375 3.87109375 C11.9492218 4.15348404 12.5390686 4.43587433 13.14678955 4.7268219 C14.38518935 5.32165072 15.62221243 5.91935345 16.85791016 6.51977539 C18.75398163 7.43943122 20.655858 8.34618031 22.55859375 9.25195312 C23.763389 9.83256999 24.96782914 10.41392444 26.171875 10.99609375 C27.2659668 11.52388428 28.36005859 12.0516748 29.48730469 12.59545898 C32 14 32 14 33 16 C32.0625 18.125 32.0625 18.125 31 20 C26.82848554 18.6879664 22.94992546 17.1203823 19.015625 15.21484375 C17.36626953 14.41916992 17.36626953 14.41916992 15.68359375 13.60742188 C13.98396484 12.78081055 13.98396484 12.78081055 12.25 11.9375 C11.10144531 11.38255859 9.95289063 10.82761719 8.76953125 10.25585938 C0.95228795 6.47614397 0.95228795 6.47614397 -2 5 C-1.34 3.35 -0.68 1.7 0 0 Z " fill="#F2F2F2" transform="translate(416,443)"/>
<path d="M0 0 C2 2 2 2 2 6 C-1.3111957 6.96287814 -4.62418304 7.91944917 -7.9375 8.875 C-8.86369141 9.14441406 -9.78988281 9.41382813 -10.74414062 9.69140625 C-25.7191311 14 -25.7191311 14 -32 14 C-32.33 12.35 -32.66 10.7 -33 9 C-25.93179093 6.54503966 -18.81212458 4.53406091 -11.5625 2.6875 C-10.47517578 2.39810547 -9.38785156 2.10871094 -8.26757812 1.81054688 C-7.23181641 1.54693359 -6.19605469 1.28332031 -5.12890625 1.01171875 C-4.19119385 0.76897217 -3.25348145 0.52622559 -2.28735352 0.27612305 C-1.53252686 0.18500244 -0.7777002 0.09388184 0 0 Z " fill="#F3F3F3" transform="translate(61,383)"/>
<path d="M0 0 C1.38125018 2.76250036 1.19079306 4.94731099 1 8 C-1 10 -1 10 -3.375 10.4375 C-6 10 -6 10 -8.3125 7.625 C-10 5 -10 5 -10 3 C-3.375 -1.125 -3.375 -1.125 0 0 Z " fill="#303031" transform="translate(83,453)"/>
<path d="M0 0 C1.7578125 1.52994792 3.515625 3.05989583 5.2734375 4.58984375 C6.95632334 6.06958624 6.95632334 6.06958624 9 7 C9 7.66 9 8.32 9 9 C4.545 10.485 4.545 10.485 0 12 C0 8.04 0 4.08 0 0 Z " fill="#3F3F40" transform="translate(318,560)"/>
<path d="M0 0 C-0.33 2.97 -0.66 5.94 -1 9 C-5.10811428 7.55007731 -8.46855666 5.54592427 -12 3 C-12 2.67 -12 2.34 -12 2 C-10.7625 1.67 -9.525 1.34 -8.25 1 C-7.55390625 0.814375 -6.8578125 0.62875 -6.140625 0.4375 C-4 0 -4 0 0 0 Z " fill="#3A3A3B" transform="translate(464,355)"/>
<path d="M0 0 C-0.66 2.97 -1.32 5.94 -2 9 C-6.05676619 6.9716169 -8.6394314 4.9786858 -12 2 C-12 1.67 -12 1.34 -12 1 C-7.93631321 0.22596442 -4.13574827 -0.0984702 0 0 Z " fill="#383839" transform="translate(448,421)"/>
<path d="M0 0 C0.33 0.99 0.66 1.98 1 3 C-0.51171875 5.6640625 -0.51171875 5.6640625 -2.6875 8.625 C-3.74517578 10.09839844 -3.74517578 10.09839844 -4.82421875 11.6015625 C-6.98909347 13.98797736 -7.86070563 14.70236938 -11 15 C-9.11408904 8.96508491 -5.24398161 3.49598774 0 0 Z " fill="#F1F1EC" transform="translate(183,217)"/>
</svg>
